<svg width="2508" height="225" viewBox="0 0 2508 225" fill="none" xmlns="http://www.w3.org/2000/svg">
<path d="M0.512695 222V3.81816H53.2471V91.3892H139.22V3.81816H191.848V222H139.22V134.322H53.2471V222H0.512695Z" fill="url(#paint0_linear_62_210)"/>
<path d="M277.661 3.81816V222H224.927V3.81816H277.661Z" fill="url(#paint1_linear_62_210)"/>
<path d="M368.082 46.6449V3.81816H552.492V46.6449H486.335V222H434.346V46.6449H368.082Z" fill="url(#paint2_linear_62_210)"/>
<path d="M578.247 222V3.81816H730.378V46.6449H630.981V91.3892H722.601V134.322H630.981V179.173H730.378V222H578.247Z" fill="url(#paint3_linear_62_210)"/>
<path d="M961.45 82.8665H908.183C907.473 77.3977 906.017 72.4616 903.815 68.0582C901.614 63.6548 898.702 59.8906 895.079 56.7656C891.457 53.6406 887.16 51.2613 882.189 49.6278C877.288 47.9233 871.855 47.071 865.889 47.071C855.307 47.071 846.18 49.6633 838.51 54.848C830.91 60.0327 825.051 67.5256 820.932 77.3267C816.883 87.1278 814.859 98.9886 814.859 112.909C814.859 127.398 816.919 139.543 821.038 149.344C825.229 159.074 831.088 166.425 838.616 171.396C846.216 176.297 855.2 178.747 865.57 178.747C871.393 178.747 876.685 178.001 881.443 176.51C886.273 175.018 890.499 172.852 894.121 170.011C897.814 167.099 900.832 163.584 903.176 159.464C905.591 155.274 907.26 150.551 908.183 145.295L961.45 145.615C960.527 155.274 957.721 164.791 953.034 174.166C948.418 183.541 942.061 192.099 933.964 199.841C925.868 207.511 915.996 213.619 904.348 218.165C892.771 222.71 879.49 224.983 864.504 224.983C844.76 224.983 827.075 220.651 811.45 211.986C795.896 203.25 783.609 190.537 774.589 173.847C765.57 157.156 761.06 136.844 761.06 112.909C761.06 88.9034 765.641 68.5554 774.802 51.865C783.964 35.1747 796.358 22.4971 811.983 13.8324C827.608 5.16759 845.115 0.835205 864.504 0.835205C877.714 0.835205 889.93 2.6818 901.152 6.37499C912.374 9.99714 922.246 15.3238 930.768 22.3551C939.291 29.3153 946.216 37.8736 951.543 48.0298C956.869 58.1861 960.172 69.7983 961.45 82.8665Z" fill="url(#paint4_linear_62_210)"/>
<path d="M991.626 222V3.81816H1044.36V91.3892H1130.33V3.81816H1182.96V222H1130.33V134.322H1044.36V222H991.626Z" fill="url(#paint5_linear_62_210)"/>
<path d="M1398.43 69.2301C1397.72 61.4176 1394.56 55.3451 1388.94 51.0128C1383.41 46.6094 1375.49 44.4077 1365.19 44.4077C1358.37 44.4077 1352.69 45.2954 1348.14 47.071C1343.6 48.8466 1340.19 51.2969 1337.92 54.4219C1335.64 57.4758 1334.47 60.9915 1334.4 64.9687C1334.26 68.2358 1334.9 71.1122 1336.32 73.598C1337.81 76.0838 1339.94 78.2855 1342.71 80.2031C1345.55 82.0497 1348.96 83.6832 1352.94 85.1037C1356.91 86.5241 1361.39 87.767 1366.36 88.8324L1385.11 93.0937C1395.91 95.4375 1405.42 98.5625 1413.66 102.469C1421.97 106.375 1428.93 111.027 1434.54 116.425C1440.22 121.822 1444.52 128.037 1447.43 135.068C1450.34 142.099 1451.84 149.983 1451.91 158.719C1451.84 172.497 1448.36 184.322 1441.47 194.195C1434.58 204.067 1424.67 211.631 1411.74 216.886C1398.89 222.142 1383.37 224.77 1365.19 224.77C1346.93 224.77 1331.03 222.035 1317.46 216.567C1303.9 211.098 1293.35 202.788 1285.82 191.638C1278.29 180.487 1274.42 166.389 1274.21 149.344H1324.7C1325.13 156.375 1327.01 162.234 1330.35 166.922C1333.69 171.609 1338.27 175.16 1344.09 177.575C1349.99 179.99 1356.81 181.197 1364.55 181.197C1371.65 181.197 1377.69 180.239 1382.66 178.321C1387.7 176.403 1391.57 173.74 1394.27 170.331C1396.97 166.922 1398.36 163.016 1398.43 158.612C1398.36 154.493 1397.08 150.977 1394.59 148.065C1392.11 145.082 1388.27 142.526 1383.09 140.395C1377.97 138.193 1371.44 136.169 1363.48 134.322L1340.68 128.996C1321.79 124.663 1306.91 117.668 1296.05 108.009C1285.18 98.2784 1279.78 85.1392 1279.85 68.5909C1279.78 55.0966 1283.41 43.2713 1290.72 33.115C1298.04 22.9588 1308.16 15.0398 1321.08 9.35794C1334.01 3.67612 1348.75 0.835205 1365.29 0.835205C1382.2 0.835205 1396.86 3.71162 1409.29 9.46446C1421.79 15.1463 1431.49 23.1363 1438.38 33.4346C1445.27 43.7329 1448.78 55.6648 1448.92 69.2301H1398.43Z" fill="url(#paint6_linear_62_210)"/>
<path d="M1471.4 46.6449V3.81816H1655.81V46.6449H1589.66V222H1537.67V46.6449H1471.4Z" fill="url(#paint7_linear_62_210)"/>
<path d="M1813.56 3.81816H1866.19V144.55C1866.19 160.814 1862.32 174.983 1854.58 187.057C1846.84 199.06 1836.04 208.364 1822.19 214.969C1808.34 221.503 1792.26 224.77 1773.93 224.77C1755.4 224.77 1739.2 221.503 1725.35 214.969C1711.5 208.364 1700.74 199.06 1693.07 187.057C1685.4 174.983 1681.57 160.814 1681.57 144.55V3.81816H1734.3V139.969C1734.3 147.497 1735.94 154.209 1739.2 160.104C1742.54 165.999 1747.19 170.615 1753.16 173.953C1759.12 177.291 1766.05 178.96 1773.93 178.96C1781.82 178.96 1788.71 177.291 1794.6 173.953C1800.57 170.615 1805.22 165.999 1808.56 160.104C1811.89 154.209 1813.56 147.497 1813.56 139.969V3.81816Z" fill="url(#paint8_linear_62_210)"/>
<path d="M1979.89 222H1899.24V3.81816H1979.78C2002.01 3.81816 2021.15 8.18606 2037.2 16.9219C2053.33 25.5866 2065.76 38.0866 2074.49 54.4219C2083.23 70.6861 2087.6 90.1463 2087.6 112.803C2087.6 135.53 2083.23 155.061 2074.49 171.396C2065.83 187.732 2053.43 200.267 2037.31 209.003C2021.19 217.668 2002.05 222 1979.89 222ZM1951.98 177.043H1977.87C1990.08 177.043 2000.41 174.983 2008.87 170.864C2017.39 166.673 2023.82 159.891 2028.15 150.516C2032.55 141.07 2034.75 128.499 2034.75 112.803C2034.75 97.1065 2032.55 84.6065 2028.15 75.3025C2023.75 65.9275 2017.25 59.1804 2008.65 55.0611C2000.13 50.8707 1989.62 48.7755 1977.12 48.7755H1951.98V177.043Z" fill="url(#paint9_linear_62_210)"/>
<path d="M2171.12 3.81816V222H2118.38V3.81816H2171.12Z" fill="url(#paint10_linear_62_210)"/>
<path d="M2410.15 112.909C2410.15 136.915 2405.54 157.263 2396.3 173.953C2387.07 190.643 2374.57 203.321 2358.8 211.986C2343.11 220.651 2325.49 224.983 2305.96 224.983C2286.36 224.983 2268.71 220.615 2253.02 211.879C2237.32 203.143 2224.86 190.466 2215.62 173.847C2206.46 157.156 2201.88 136.844 2201.88 112.909C2201.88 88.9034 2206.46 68.5554 2215.62 51.865C2224.86 35.1747 2237.32 22.4971 2253.02 13.8324C2268.71 5.16759 2286.36 0.835205 2305.96 0.835205C2325.49 0.835205 2343.11 5.16759 2358.8 13.8324C2374.57 22.4971 2387.07 35.1747 2396.3 51.865C2405.54 68.5554 2410.15 88.9034 2410.15 112.909ZM2356.25 112.909C2356.25 98.7045 2354.22 86.7017 2350.18 76.9006C2346.2 67.0994 2340.45 59.6775 2332.92 54.6349C2325.46 49.5923 2316.47 47.071 2305.96 47.071C2295.52 47.071 2286.54 49.5923 2279.01 54.6349C2271.48 59.6775 2265.69 67.0994 2261.65 76.9006C2257.67 86.7017 2255.68 98.7045 2255.68 112.909C2255.68 127.114 2257.67 139.116 2261.65 148.918C2265.69 158.719 2271.48 166.141 2279.01 171.183C2286.54 176.226 2295.52 178.747 2305.96 178.747C2316.47 178.747 2325.46 176.226 2332.92 171.183C2340.45 166.141 2346.2 158.719 2350.18 148.918C2354.22 139.116 2356.25 127.114 2356.25 112.909Z" fill="url(#paint11_linear_62_210)"/>
<path d="M2450.74 185.636C2450.74 182.014 2451.62 178.723 2453.37 175.764C2455.15 172.781 2457.53 170.402 2460.51 168.626C2463.49 166.851 2466.79 165.963 2470.42 165.963C2473.59 165.963 2476.52 166.673 2479.22 168.094C2481.95 169.491 2484.17 171.396 2485.9 173.811C2487.65 176.226 2488.71 178.96 2489.06 182.014H2477.84C2477.51 180.428 2476.64 179.15 2475.25 178.179C2473.85 177.185 2472.24 176.687 2470.42 176.687C2468.78 176.687 2467.29 177.09 2465.94 177.895C2464.59 178.676 2463.5 179.741 2462.68 181.091C2461.87 182.44 2461.47 183.944 2461.47 185.601C2461.47 187.234 2461.87 188.738 2462.68 190.111C2463.5 191.46 2464.59 192.549 2465.94 193.378C2467.29 194.183 2468.78 194.585 2470.42 194.585C2472.24 194.585 2473.83 194.1 2475.18 193.129C2476.52 192.135 2477.37 190.845 2477.7 189.259H2488.92C2488.56 192.312 2487.52 195.047 2485.79 197.462C2484.09 199.876 2481.9 201.794 2479.22 203.214C2476.55 204.611 2473.61 205.31 2470.42 205.31C2466.79 205.31 2463.49 204.422 2460.51 202.646C2457.53 200.871 2455.15 198.503 2453.37 195.544C2451.62 192.561 2450.74 189.259 2450.74 185.636ZM2470.17 223.136C2465.01 223.136 2460.15 222.166 2455.61 220.224C2451.09 218.283 2447.1 215.596 2443.64 212.163C2440.21 208.707 2437.51 204.718 2435.54 200.196C2433.6 195.674 2432.64 190.821 2432.67 185.636C2432.69 180.452 2433.67 175.598 2435.62 171.077C2437.58 166.555 2440.28 162.578 2443.71 159.145C2447.14 155.688 2451.12 152.99 2455.64 151.048C2460.17 149.107 2465.01 148.136 2470.17 148.136C2475.35 148.136 2480.21 149.107 2484.73 151.048C2489.27 152.99 2493.25 155.688 2496.66 159.145C2500.09 162.578 2502.78 166.555 2504.72 171.077C2506.66 175.598 2507.64 180.452 2507.67 185.636C2507.69 190.821 2506.73 195.674 2504.79 200.196C2502.85 204.718 2500.16 208.707 2496.73 212.163C2493.3 215.596 2489.31 218.283 2484.76 220.224C2480.22 222.166 2475.35 223.136 2470.17 223.136ZM2470.17 210.139C2473.58 210.139 2476.76 209.5 2479.72 208.222C2482.7 206.943 2485.31 205.191 2487.53 202.966C2489.76 200.717 2491.5 198.125 2492.75 195.189C2494.03 192.23 2494.67 189.057 2494.67 185.672C2494.65 182.263 2494 179.079 2492.72 176.119C2491.46 173.136 2489.71 170.532 2487.46 168.307C2485.24 166.081 2482.64 164.33 2479.69 163.051C2476.73 161.773 2473.55 161.133 2470.17 161.133C2466.81 161.133 2463.65 161.773 2460.69 163.051C2457.75 164.33 2455.16 166.093 2452.91 168.342C2450.66 170.591 2448.9 173.196 2447.62 176.155C2446.34 179.114 2445.69 182.286 2445.67 185.672C2445.67 189.034 2446.29 192.194 2447.55 195.153C2448.83 198.089 2450.59 200.681 2452.84 202.93C2455.09 205.179 2457.69 206.943 2460.65 208.222C2463.61 209.5 2466.78 210.139 2470.17 210.139Z" fill="url(#paint12_linear_62_210)"/>
<defs>
<linearGradient id="paint0_linear_62_210" x1="-99.4999" y1="-257" x2="2365.5" y2="823" gradientUnits="userSpaceOnUse">
<stop stop-color="#211E9A"/>
<stop offset="0.40625" stop-color="#6C38FF"/>
<stop offset="0.71875" stop-color="#4626CF"/>
<stop offset="1" stop-color="#000069"/>
</linearGradient>
<linearGradient id="paint1_linear_62_210" x1="-99.4999" y1="-257" x2="2365.5" y2="823" gradientUnits="userSpaceOnUse">
<stop stop-color="#211E9A"/>
<stop offset="0.40625" stop-color="#6C38FF"/>
<stop offset="0.71875" stop-color="#4626CF"/>
<stop offset="1" stop-color="#000069"/>
</linearGradient>
<linearGradient id="paint2_linear_62_210" x1="-99.4999" y1="-257" x2="2365.5" y2="823" gradientUnits="userSpaceOnUse">
<stop stop-color="#211E9A"/>
<stop offset="0.40625" stop-color="#6C38FF"/>
<stop offset="0.71875" stop-color="#4626CF"/>
<stop offset="1" stop-color="#000069"/>
</linearGradient>
<linearGradient id="paint3_linear_62_210" x1="-99.4999" y1="-257" x2="2365.5" y2="823" gradientUnits="userSpaceOnUse">
<stop stop-color="#211E9A"/>
<stop offset="0.40625" stop-color="#6C38FF"/>
<stop offset="0.71875" stop-color="#4626CF"/>
<stop offset="1" stop-color="#000069"/>
</linearGradient>
<linearGradient id="paint4_linear_62_210" x1="-99.4999" y1="-257" x2="2365.5" y2="823" gradientUnits="userSpaceOnUse">
<stop stop-color="#211E9A"/>
<stop offset="0.40625" stop-color="#6C38FF"/>
<stop offset="0.71875" stop-color="#4626CF"/>
<stop offset="1" stop-color="#000069"/>
</linearGradient>
<linearGradient id="paint5_linear_62_210" x1="-99.4999" y1="-257" x2="2365.5" y2="823" gradientUnits="userSpaceOnUse">
<stop stop-color="#211E9A"/>
<stop offset="0.40625" stop-color="#6C38FF"/>
<stop offset="0.71875" stop-color="#4626CF"/>
<stop offset="1" stop-color="#000069"/>
</linearGradient>
<linearGradient id="paint6_linear_62_210" x1="-99.4999" y1="-257" x2="2365.5" y2="823" gradientUnits="userSpaceOnUse">
<stop stop-color="#211E9A"/>
<stop offset="0.40625" stop-color="#6C38FF"/>
<stop offset="0.71875" stop-color="#4626CF"/>
<stop offset="1" stop-color="#000069"/>
</linearGradient>
<linearGradient id="paint7_linear_62_210" x1="-99.4999" y1="-257" x2="2365.5" y2="823" gradientUnits="userSpaceOnUse">
<stop stop-color="#211E9A"/>
<stop offset="0.40625" stop-color="#6C38FF"/>
<stop offset="0.71875" stop-color="#4626CF"/>
<stop offset="1" stop-color="#000069"/>
</linearGradient>
<linearGradient id="paint8_linear_62_210" x1="-99.4999" y1="-257" x2="2365.5" y2="823" gradientUnits="userSpaceOnUse">
<stop stop-color="#211E9A"/>
<stop offset="0.40625" stop-color="#6C38FF"/>
<stop offset="0.71875" stop-color="#4626CF"/>
<stop offset="1" stop-color="#000069"/>
</linearGradient>
<linearGradient id="paint9_linear_62_210" x1="-99.4999" y1="-257" x2="2365.5" y2="823" gradientUnits="userSpaceOnUse">
<stop stop-color="#211E9A"/>
<stop offset="0.40625" stop-color="#6C38FF"/>
<stop offset="0.71875" stop-color="#4626CF"/>
<stop offset="1" stop-color="#000069"/>
</linearGradient>
<linearGradient id="paint10_linear_62_210" x1="-99.4999" y1="-257" x2="2365.5" y2="823" gradientUnits="userSpaceOnUse">
<stop stop-color="#211E9A"/>
<stop offset="0.40625" stop-color="#6C38FF"/>
<stop offset="0.71875" stop-color="#4626CF"/>
<stop offset="1" stop-color="#000069"/>
</linearGradient>
<linearGradient id="paint11_linear_62_210" x1="-99.4999" y1="-257" x2="2365.5" y2="823" gradientUnits="userSpaceOnUse">
<stop stop-color="#211E9A"/>
<stop offset="0.40625" stop-color="#6C38FF"/>
<stop offset="0.71875" stop-color="#4626CF"/>
<stop offset="1" stop-color="#000069"/>
</linearGradient>
<linearGradient id="paint12_linear_62_210" x1="-99.4999" y1="-257" x2="2365.5" y2="823" gradientUnits="userSpaceOnUse">
<stop stop-color="#211E9A"/>
<stop offset="0.40625" stop-color="#6C38FF"/>
<stop offset="0.71875" stop-color="#4626CF"/>
<stop offset="1" stop-color="#000069"/>
</linearGradient>
</defs>
</svg>
