<svg width="616" height="613" viewBox="0 0 616 613" fill="none" xmlns="http://www.w3.org/2000/svg">
<circle cx="250.8" cy="163.471" r="70.4" fill="#000069"/>
<circle cx="514.8" cy="352.671" r="70.4" fill="#23139C"/>
<circle cx="264" cy="541.872" r="70.4" fill="#4626CF"/>
<circle cx="365.2" cy="31.4713" r="30.8" fill="#000069"/>
<circle cx="74.8" cy="295.471" r="30.8" fill="#351DB6"/>
<circle cx="585.2" cy="163.471" r="30.8" fill="#23139C"/>
<circle cx="400.4" cy="462.671" r="30.8" fill="#4626CF"/>
<path d="M334.4 255.871C334.4 263.162 328.49 269.071 321.2 269.071C313.91 269.071 308 263.162 308 255.871C308 248.581 313.91 242.671 321.2 242.671C328.49 242.671 334.4 248.581 334.4 255.871Z" fill="#000069"/>
<circle cx="294.801" cy="361.471" r="13.2" fill="#4626CF"/>
<circle cx="96.7996" cy="71.0714" r="13.2" fill="#000069"/>
<circle cx="356.4" cy="128.271" r="13.2" fill="#000069"/>
<circle cx="87.9998" cy="493.471" r="13.2" fill="#351DB6"/>
<circle cx="369.6" cy="387.871" r="13.2" fill="#4626CF"/>
<circle cx="132" cy="423.071" r="13.2" fill="#351DB6"/>
<circle cx="406.058" cy="217.529" r="5.65715" fill="#23139C"/>
<circle cx="234.457" cy="287.929" r="5.65715" fill="#211E9A"/>
<circle cx="234.457" cy="424.329" r="5.65715" fill="#4626CF"/>
<circle cx="5.65715" cy="186.729" r="5.65715" fill="#1F1CAA"/>
<circle cx="476.457" cy="529.929" r="5.65715" fill="#4626CF"/>
<circle cx="608.458" cy="393.529" r="5.65715" fill="#23139C"/>
</svg>
